PathFileType	4	(X/Y/Z)	70_2_49_p0_0-421.trc
DataRate	CameraRate	NumFrames	NumMarkers	Units	OrigDataRate	OrigDataStartFrame	OrigNumFrames
49.0	49.0	7	27	m	49.0	211	422
Frame#	Time	RHip			RKnee			RAnkle			RBigToe			RSmallToe			RHeel			LHip			LKnee			LAnkle			LBigToe			LSmallToe			LHeel			Neck			Head			Nose			RShoulder			RElbow			RWrist			RThumb			RIndex			RPinky			LShoulder			LElbow			LWrist			LThumb			LIndex			LPinky			
		X1	Y1	Z1	X2	Y2	Z2	X3	Y3	Z3	X4	Y4	Z4	X5	Y5	Z5	X6	Y6	Z6	X7	Y7	Z7	X8	Y8	Z8	X9	Y9	Z9	X10	Y10	Z10	X11	Y11	Z11	X12	Y12	Z12	X13	Y13	Z13	X14	Y14	Z14	X15	Y15	Z15	X16	Y16	Z16	X17	Y17	Z17	X18	Y18	Z18	X19	Y19	Z19	X20	Y20	Z20	X21	Y21	Z21	X22	Y22	Z22	X23	Y23	Z23	X24	Y24	Z24	X25	Y25	Z25	X26	Y26	Z26	X27	Y27	Z27	
211	4.3061224489795915	0.3588775276190644	0.6224205704373016	0.1378847142423461	0.3654389573889307	0.6989845892372214	0.5442580725729906	0.36219124584631135	0.7599190009631479	0.9420049071674583	0.3293739288415689	0.6372919438159529	1.0054840165217482	0.39263983813567754	0.6121803797923709	0.9922701087854624	0.359302172243313	0.8378976087882383	0.9943610231623423	0.12183948977188226	0.6256038813976775	0.15293601604525625	0.14066932793877082	0.7179471411001114	0.5547381886808802	0.16940183203145462	0.8204322584616979	0.9541761541923751	0.16525713358474958	0.6292007261475244	0.9759358994278086	0.11385209812628956	0.7070011831214678	0.9816654908496122	0.19452196331205748	0.8549512636854202	1.000374151404746	0.23852532641812957	0.25129351944994305	-0.23675848733852575	0.22557628933097104	-0.07205531840529313	-0.45230997598163847	0.23285549460762642	0.011204951716732537	-0.2742302426494034	0.398801655330779	0.2998573435070217	-0.2669125924814531	0.6010385372069733	0.4421317637500872	-0.2266108395943073	0.8164461278752171	0.5857023215184756	-0.18464963193957468	0.936879168055733	0.6432581043580322	-0.15690786037680876	0.9446479278389445	0.6574760343990634	-0.16013973054974764	0.9285892369315699	0.6656100558520432	-0.16434923612013358	0.04528829728551667	0.2315711797152824	-0.26110926383815264	-0.1978704137484924	0.19127079298571378	-0.18909852417532308	-0.3973840972186937	0.1211633564822795	-0.10324678571712305	-0.45713291601861616	0.08251385124755219	-0.0597237958778976	-0.490185647047065	0.08649054834002454	-0.09143338564799701	-0.49960599955001866	0.10061496819527736	-0.10790173298731372
212	4.326530612244898	0.35874872435417365	0.6222141669864829	0.1377148459855052	0.3658653633880084	0.6978846869881719	0.5356855648192328	0.3561670503154503	0.7454411439131419	0.937277544173373	0.3238498046498728	0.6222801137763063	1.0003764748585044	0.3947083965901613	0.6125899336490673	0.9934863366088705	0.35920490223772367	0.8379002982130793	0.9942627490306883	0.1221165117402187	0.6244845488323492	0.14510193605426253	0.14572726089789434	0.7313829590814714	0.5494990286321271	0.1694358245595128	0.8204619955681587	0.9541143888610314	0.16933975655496153	0.6159231928300165	0.9752508186452835	0.1171530185690342	0.6906356744902084	0.9759946341507099	0.19432819479352084	0.8554070793684311	1.000517446322803	0.2390583131893409	0.2523787109483923	-0.2331214295707445	0.22545554659680248	-0.0723165982920104	-0.4537292805934277	0.23083385934940784	0.021749672181917427	-0.27469851567777215	0.39892814208569893	0.29933159804510845	-0.2700419368485547	0.6012176663071117	0.44197362664988765	-0.2275485475146223	0.8082178043481649	0.5867053789608371	-0.1925720207290493	0.9239912673026736	0.5468073750460858	-0.1585039193072744	0.9411684161732182	0.6409806637138974	-0.16320439249401097	0.9291255913009439	0.6663468185817921	-0.16507438266946592	0.041537347072691445	0.22132259093713727	-0.2567104219019283	-0.20453500905833788	0.191842447148162	-0.18294873010092616	-0.40307168360567275	0.12370868225909132	-0.08979717865551903	-0.4273656501688538	0.08266295590425467	-0.04708573012016539	-0.4871829126705281	0.09203581297582258	-0.06887839902699641	-0.5006484284893767	0.10284204158786249	-0.09897727162791684
213	4.346938775510204	0.3591404035704543	0.6199633402464211	0.1254711366103979	0.36498757597624326	0.6946081901882488	0.5223252540016468	0.3559333984469667	0.7461582541180041	0.9334691086919028	0.3293113505946956	0.6369676940570073	1.0056973121005708	0.3947423449153094	0.6125584309321482	0.9935461185168271	0.35334906315031417	0.8220001158001843	0.9889548201799652	0.12305929689995704	0.6229790049007136	0.13747210002473112	0.14574645795751842	0.7313707847627885	0.5494298250172689	0.16935361431792212	0.8204339497229765	0.9538308374692276	0.16920262109418624	0.615939202147402	0.975315459154031	0.10948268305901869	0.7051475501185589	0.981018235794771	0.18904190125850084	0.8393691094885106	0.9953614033771597	0.2384050469693895	0.25023953440354285	-0.2368700766112748	0.22368838414930883	-0.06194778309343364	-0.45774489180908884	0.230302809258692	0.020287339821085423	-0.2808822731340023	0.39993597065814646	0.2850887578199383	-0.273851836019099	0.6099884960371875	0.44224898340124824	-0.2434132242988251	0.820842491516973	0.6257775154647486	-0.20573282508945268	0.92979973333871	0.6299189343359056	-0.1688931677669202	0.948703386882693	0.6544529502325502	-0.16453730342354786	0.9281247364710092	0.6639670535418362	-0.17274536754490186	0.038376784840730635	0.2211846424095651	-0.2520583849204099	-0.20354175121774137	0.17048482846448001	-0.18224018661800007	-0.3983178544085395	0.11548277598550827	-0.0822871884808966	-0.4326978539868131	0.07144220734140734	-0.03754268415072476	-0.4833148053935806	0.08581567302136639	-0.04664126008669074	-0.4984385351462743	0.09085025625468948	-0.06655487882331396
214	4.36734693877551	0.35905561942753	0.6207355215715266	0.13339509869375374	0.3657192135183601	0.6984855715947335	0.5316077213503653	0.3558713664861731	0.7456649122114812	0.9333529982923077	0.32940687878137825	0.6370226696361673	1.0057055617783308	0.3941322641139103	0.6143740903595177	0.9975946995556207	0.35494312379729875	0.8043977184339604	0.9783336304610304	0.12328036646813392	0.6224539761402945	0.14113828426413141	0.14099876936012684	0.7172482497929865	0.5463191738776128	0.1693539950954946	0.8203910038914289	0.9538505179229497	0.1693227709450202	0.6162951290920231	0.9753627692387447	0.10957063949470783	0.705052306449129	0.9809369543692089	0.18883404654901786	0.8388982869361218	0.9953065811234723	0.23842173526637964	0.2502188254075429	-0.23691512051404248	0.223511332462078	-0.062173109838037414	-0.4587382875550048	0.23046935235986812	0.020076770940945222	-0.2808528976707932	0.39987733587531576	0.28436229016786063	-0.2769439279841515	0.6035540916041231	0.4268174312504542	-0.2468041840783992	0.8203239210721962	0.6091234696961482	-0.20981639555415926	0.9320057789884759	0.5889865392474763	-0.17350276678642187	0.9623288587119301	0.595465400611539	-0.17028112091945133	0.9314389560390474	0.6447731041292035	-0.17405205021850836	0.04514711976453387	0.21033177107895756	-0.25233660874069136	-0.20076960768023305	0.18181689573442392	-0.1763030629085741	-0.3958944318268204	0.12659342185967093	-0.07243527027653596	-0.4280404217229421	0.06733943941895758	-0.028573869215585513	-0.47464677959588236	0.0690498543983963	-0.03970620121231863	-0.4961778029989609	0.10239429439528397	-0.04639521249979826
215	4.387755102040816	0.3590817966442661	0.6206652723496905	0.13343915150973593	0.3634162115262658	0.6934440100302947	0.5260014657619168	0.3560280990176662	0.7443561397557453	0.936891365552946	0.3295348764036065	0.6373675405258135	1.0056106743194735	0.39497367844687087	0.612909209304063	0.9934619599610104	0.34940114450792453	0.7879611134310259	0.9773038262891451	0.11856618289062709	0.6089166542562542	0.1397950037111957	0.14097789660261342	0.7172112578206874	0.5461713523208442	0.17243776624007184	0.803573521334018	0.9485527160567874	0.16651855438916913	0.6325943254971481	0.9811035079921073	0.11504465651083105	0.7101822761735405	0.9871768671455519	0.18394989941238352	0.8359491650039611	0.9945095094809985	0.23840490357421806	0.2507337996421714	-0.23715493272110313	0.21954364323569106	-0.07008771075129087	-0.4608624429299878	0.2309211180208481	0.021248142588832376	-0.2812390339727309	0.39904800448041305	0.28299382240704674	-0.28467174790976235	0.6025954184628575	0.41883430599795646	-0.25360254352166267	0.8200623501145321	0.6081082553881038	-0.2193567759527168	0.9214838085807568	0.5737546659826157	-0.18518290992189684	0.9653156868054437	0.6292463896536098	-0.17104862394678433	0.930912062974436	0.6597840569876124	-0.18148821494061732	0.04182346883509333	0.22263186585688666	-0.24892527555003346	-0.1970958527688025	0.18357470727784322	-0.17294695131511698	-0.3933683437705823	0.12959995660715182	-0.0599098835787348	-0.41587398216624477	0.11076781879606538	-0.019843205861476147	-0.4703202942421801	0.061053046563759414	-0.03387207074354685	-0.49645574282558796	0.10258916156346413	-0.040184104987998945
216	4.408163265306122	0.3590625641266671	0.6209423142798975	0.13354761608023966	0.35876045880239754	0.6929350033809523	0.5259361775556631	0.3559817914330814	0.7444077176802776	0.9370047406943905	0.32981689246310825	0.6377882794974098	1.0057465660316438	0.3992101487140533	0.6148866246954448	0.9973962758445868	0.3491827024329477	0.7881303245918502	0.9775029400831489	0.1185702820580747	0.608867537923934	0.13982407991907028	0.14119940692881902	0.7166750531137419	0.5504165554750918	0.16927739556909546	0.8201885307926159	0.9540088261857692	0.1713691232364151	0.6458238341497303	0.9858869112545801	0.11382222752844831	0.707470533912095	0.9819716571676196	0.18359244794256044	0.8363997865481916	0.9947315442874171	0.23835886791022523	0.2512176413196662	-0.23732410035401413	0.22126053094994155	-0.08041417592585814	-0.45928165445503677	0.23032188942413387	0.020686412453575467	-0.28139939789733387	0.39835418814172396	0.2966298838812585	-0.28476358650517486	0.6026167620166695	0.42216502281191537	-0.25624595390094745	0.8269303914900038	0.6037866664097903	-0.22232006170968702	0.935160876465363	0.5317140521355914	-0.18181690092674138	0.9644815674152628	0.542867576266378	-0.17893904905446736	0.9327594991111146	0.6392120677959382	-0.1862826932035668	0.041765792095341335	0.22310040215704502	-0.2484433748931483	-0.19717059835311593	0.1839137436756452	-0.17282574397311815	-0.3936057038615044	0.13201361951195853	-0.046871071023048584	-0.4172736718607734	0.10040317051361487	-0.013944663221702442	-0.46488504345428	0.071986817218374	-0.030430307504558104	-0.49622726339237483	0.10329429163746677	-0.039782833998879684
217	4.428571428571429	0.353374289387461	0.6197481695474412	0.13356143831554596	0.3586691507044012	0.6929595895133569	0.5258907084983341	0.35603195978196106	0.7443453015194366	0.9370285346643586	0.33521760221995744	0.6520396355005441	1.01077853835564	0.3994098086600841	0.6149728791958685	0.9973456830944614	0.349208784131767	0.7878383260537559	0.9775036692904046	0.12266566875698937	0.6229383670127601	0.14486421443652456	0.1411852613765421	0.7167047854438535	0.5504984550259351	0.16925144834821376	0.8202269478476215	0.9541484693094429	0.1713284566594658	0.6460013528291693	0.9860189618655469	0.1149793264267354	0.7102648300072537	0.9874009094274775	0.1834610181430202	0.8358737434244033	0.9948316954566621	0.23848720000704957	0.2504862259610116	-0.24055311539746527	0.2191099802023599	-0.07089684283126288	-0.4625808755211228	0.23019268489433178	0.020555018633948787	-0.28146167366685093	0.3984192294280652	0.29611341378374556	-0.2874728045823476	0.6024430302061262	0.4104157143618546	-0.25859890460715024	0.8305651766327449	0.5837362533360585	-0.22534935387255622	0.9422675804993077	0.5144636255803338	-0.18537630997118956	0.9636101219386669	0.5266679001044776	-0.18269256223856611	0.9385405989053168	0.6182372487321571	-0.19094139597680185	0.03849579617623989	0.23492978036330814	-0.24544438519146897	-0.200285414788308	0.18368335082584414	-0.16931203703106731	-0.39407477156099446	0.1326027250082519	-0.04366658544234542	-0.4195278540291737	0.09060871433188704	-0.006873828460503442	-0.47444196720626197	0.09111202815982165	-0.021606550390542174	-0.4962652874597516	0.10341128239850317	-0.03941480687549632
